{"title":"Powder Blue.2009.SWESUB.DVDRip.XviD-Zen_Bud","uid":5535068,"size":1471207478,"categoryP":"video","categoryS":"movies","magnet":"?xt=urn:btih:5fdfc1c8f087af77038df5f4eb526b1e6cfe3bd4&amp;dn=Powder+Blue.2009.SWESUB.DVDRip.XviD-Zen_Bud&amp;tr=udp%3A%2F%2Ftracker.openbittorrent.com%3A80&amp;tr=udp%3A%2F%2Fopen.demonii.com%3A1337&amp;tr=udp%3A%2F%2Ftracker.coppersurfer.tk%3A6969&amp;tr=udp%3A%2F%2Fexodus.desync.com%3A6969","seeders":1,"leechers":0,"uploader":"Zen_Bud","files":-1,"time":1273046618,"description":"General\nComplete name                    : Powder Blue.avi\nFormat                           : AVI\nFile size                        : 1.37 GiB\nDuration                         : 1h 46mn\nOverall bit rate                 : 1 847 Kbps\n\nVideo\nID                               : 0\nFormat                           : MPEG-4 Visual\nCodec ID/Hint                    : XviD\nDuration                         : 1h 46mn\nBit rate                         : 1 707 Kbps\nWidth                            : 720 pixels\nHeight                           : 360 pixels\nDisplay aspect ratio             : 2.35:1\nResolution                       : 8 bits\nColorimetry                      : 4:2:0\nScan type                        : Progressive\nBits/(Pixel*Frame)               : 0.275\nStream size                      : 1.27 GiB (92%)\nWriting library                  : XviD 1.1.2 (UTC 2006-11-01)\n\nAudio\nID                               : 1\nFormat                           : MPEG Audio\nMode                             : Joint stereo\nCodec ID/Hint                    : MP3\nDuration                         : 1h 46mn\nBit rate                         : 128 Kbps\nChannel(s)                       : 2 channels\nSampling rate                    : 48.0 KHz\nStream size                      : 97.2 MiB (7%)\nWriting library                  : LAME3.98\n\n","torrent":{"xt":"urn:btih:5fdfc1c8f087af77038df5f4eb526b1e6cfe3bd4","amp;dn":"Powder+Blue.2009.SWESUB.DVDRip.XviD-Zen_Bud","amp;tr":["udp%3A%2F%2Ftracker.openbittorrent.com%3A80","udp%3A%2F%2Fopen.demonii.com%3A1337","udp%3A%2F%2Ftracker.coppersurfer.tk%3A6969","udp%3A%2F%2Fexodus.desync.com%3A6969"],"infoHash":"5fdfc1c8f087af77038df5f4eb526b1e6cfe3bd4","infoHashBuffer":{"type":"Buffer","data":[95,223,193,200,240,135,175,119,3,141,245,244,235,82,107,30,108,254,59,212]},"announce":[],"urlList":[]}}